<svg width="22" height="18" viewBox="0 0 22 18" fill="none" xmlns="http://www.w3.org/2000/svg">
<path d="M13 6.50346V4.62958C13.55 4.37238 14.1125 4.17948 14.6875 4.05088C15.2625 3.92228 15.8667 3.85798 16.5 3.85798C16.9333 3.85798 17.3583 3.89473 17.775 3.96821C18.1917 4.0417 18.6 4.13355 19 4.24378V6.00743C18.6 5.84209 18.1958 5.71808 17.7875 5.63541C17.3792 5.55274 16.95 5.51141 16.5 5.51141C15.8667 5.51141 15.2583 5.59867 14.675 5.7732C14.0917 5.94772 13.5333 6.19115 13 6.50346ZM13 12.566V10.6921C13.55 10.4349 14.1125 10.242 14.6875 10.1134C15.2625 9.98483 15.8667 9.92053 16.5 9.92053C16.9333 9.92053 17.3583 9.95727 17.775 10.0308C18.1917 10.1042 18.6 10.1961 19 10.3063V12.07C18.6 11.9046 18.1958 11.7806 17.7875 11.698C17.3792 11.6153 16.95 11.574 16.5 11.574C15.8667 11.574 15.2583 11.6566 14.675 11.822C14.0917 11.9873 13.5333 12.2353 13 12.566ZM13 9.53473V7.66085C13.55 7.40365 14.1125 7.21076 14.6875 7.08216C15.2625 6.95356 15.8667 6.88926 16.5 6.88926C16.9333 6.88926 17.3583 6.926 17.775 6.99948C18.1917 7.07297 18.6 7.16483 19 7.27505V9.0387C18.6 8.87336 18.1958 8.74936 17.7875 8.66669C17.3792 8.58401 16.95 8.54268 16.5 8.54268C15.8667 8.54268 15.2583 8.62994 14.675 8.80447C14.0917 8.979 13.5333 9.22242 13 9.53473ZM5.5 13.2274C6.28333 13.2274 7.04583 13.3238 7.7875 13.5167C8.52917 13.7096 9.26667 13.999 10 14.3848V3.5273C9.31667 3.08639 8.59167 2.7557 7.825 2.53525C7.05833 2.31479 6.28333 2.20456 5.5 2.20456C4.9 2.20456 4.30417 2.26886 3.7125 2.39746C3.12083 2.52606 2.55 2.71896 2 2.97616V13.8887C2.58333 13.6683 3.1625 13.5029 3.7375 13.3927C4.3125 13.2825 4.9 13.2274 5.5 13.2274ZM12 14.3848C12.7333 13.999 13.4708 13.7096 14.2125 13.5167C14.9542 13.3238 15.7167 13.2274 16.5 13.2274C17.1 13.2274 17.6875 13.2825 18.2625 13.3927C18.8375 13.5029 19.4167 13.6683 20 13.8887V2.97616C19.45 2.71896 18.8792 2.52606 18.2875 2.39746C17.6958 2.26886 17.1 2.20456 16.5 2.20456C15.7167 2.20456 14.9417 2.31479 14.175 2.53525C13.4083 2.7557 12.6833 3.08639 12 3.5273V14.3848ZM11 17.6365C10.2 16.9384 9.33333 16.3964 8.4 16.0106C7.46667 15.6248 6.5 15.4319 5.5 15.4319C4.8 15.4319 4.1125 15.533 3.4375 15.7351C2.7625 15.9371 2.11667 16.2219 1.5 16.5893C1.15 16.7914 0.8125 16.7822 0.4875 16.5618C0.1625 16.3413 0 16.0198 0 15.5973V2.31479C0 2.11271 0.0458333 1.91981 0.1375 1.73609C0.229167 1.55238 0.366667 1.41459 0.55 1.32274C1.31667 0.881825 2.11667 0.551141 2.95 0.330684C3.78333 0.110228 4.63333 0 5.5 0C6.46667 0 7.4125 0.137785 8.3375 0.413355C9.2625 0.688926 10.15 1.10228 11 1.65342C11.85 1.10228 12.7375 0.688926 13.6625 0.413355C14.5875 0.137785 15.5333 0 16.5 0C17.3667 0 18.2167 0.110228 19.05 0.330684C19.8833 0.551141 20.6833 0.881825 21.45 1.32274C21.6333 1.41459 21.7708 1.55238 21.8625 1.73609C21.9542 1.91981 22 2.11271 22 2.31479V15.5973C22 16.0198 21.8375 16.3413 21.5125 16.5618C21.1875 16.7822 20.85 16.7914 20.5 16.5893C19.8833 16.2219 19.2375 15.9371 18.5625 15.7351C17.8875 15.533 17.2 15.4319 16.5 15.4319C15.5 15.4319 14.5333 15.6248 13.6 16.0106C12.6667 16.3964 11.8 16.9384 11 17.6365Z" fill="url(#paint0_linear_24_18)"/>
<defs>
<linearGradient id="paint0_linear_24_18" x1="11" y1="0" x2="11" y2="17.6365" gradientUnits="userSpaceOnUse">
<stop stop-color="#FFC355"/>
<stop offset="1" stop-color="#FFA500"/>
</linearGradient>
</defs>
</svg>
