<svg width="23" height="23" viewBox="0 0 23 23" fill="none" xmlns="http://www.w3.org/2000/svg">
<path d="M10.9 22.0456L15.45 8.81825H17.55L22.1 22.0456H20L18.925 18.6837H14.075L13 22.0456H10.9ZM3 18.7388L1.6 17.1956L6.65 11.6291C6.06667 10.9861 5.5375 10.2512 5.0625 9.4245C4.5875 8.59779 4.15 7.66085 3.75 6.61369H5.85C6.18333 7.33017 6.51667 7.9548 6.85 8.48757C7.18333 9.02033 7.58333 9.5531 8.05 10.0859C8.6 9.47962 9.17083 8.62994 9.7625 7.53685C10.3542 6.44375 10.8 5.40118 11.1 4.40912H0V2.20456H7V0H9V2.20456H16V4.40912H13.1C12.75 5.73186 12.225 7.09134 11.525 8.48757C10.825 9.88379 10.1333 10.9493 9.45 11.6842L11.85 14.3848L11.1 16.6444L8.05 13.1998L3 18.7388ZM14.7 16.7547H18.3L16.5 11.133L14.7 16.7547Z" fill="url(#paint0_linear_24_16)"/>
<defs>
<linearGradient id="paint0_linear_24_16" x1="11.05" y1="0" x2="11.05" y2="22.0456" gradientUnits="userSpaceOnUse">
<stop stop-color="#FFC355"/>
<stop offset="1" stop-color="#FFA500"/>
</linearGradient>
</defs>
</svg>
