<svg width="169" height="45" viewBox="0 0 169 45" fill="none" xmlns="http://www.w3.org/2000/svg">
<path d="M0.143467 35V0.0909119H13.9162C16.5526 0.0909119 18.8026 0.562503 20.6662 1.50568C22.5412 2.4375 23.9673 3.76137 24.9446 5.47728C25.9332 7.18182 26.4276 9.1875 26.4276 11.4943C26.4276 13.8125 25.9276 15.8068 24.9276 17.4773C23.9276 19.1364 22.4787 20.4091 20.581 21.2955C18.6946 22.1818 16.4105 22.625 13.7287 22.625H4.5071V16.6932H12.5355C13.9446 16.6932 15.1151 16.5 16.0469 16.1136C16.9787 15.7273 17.6719 15.1477 18.1264 14.375C18.5923 13.6023 18.8253 12.642 18.8253 11.4943C18.8253 10.3352 18.5923 9.35796 18.1264 8.5625C17.6719 7.76705 16.973 7.16477 16.0298 6.75568C15.098 6.33523 13.9219 6.125 12.5014 6.125H7.52415V35H0.143467ZM18.9957 19.1136L27.6719 35H19.5241L11.0355 19.1136H18.9957Z" fill="black"/>
<path d="M38.973 35.4943C37.3026 35.4943 35.8139 35.2045 34.5071 34.625C33.2003 34.0341 32.1662 33.1648 31.4048 32.017C30.6548 30.858 30.2798 29.4148 30.2798 27.6875C30.2798 26.233 30.5469 25.0114 31.081 24.0227C31.6151 23.0341 32.3423 22.2386 33.2628 21.6364C34.1832 21.0341 35.2287 20.5795 36.3992 20.2727C37.581 19.9659 38.8196 19.75 40.1151 19.625C41.6378 19.4659 42.8651 19.3182 43.7969 19.1818C44.7287 19.0341 45.4048 18.8182 45.8253 18.5341C46.2457 18.25 46.456 17.8295 46.456 17.2727V17.1705C46.456 16.0909 46.1151 15.2557 45.4332 14.6648C44.7628 14.0739 43.8082 13.7784 42.5696 13.7784C41.2628 13.7784 40.223 14.0682 39.4503 14.6477C38.6776 15.2159 38.1662 15.9318 37.9162 16.7955L31.2003 16.25C31.5412 14.6591 32.2117 13.2841 33.2117 12.125C34.2117 10.9545 35.5014 10.0568 37.081 9.43182C38.6719 8.79546 40.5128 8.47728 42.6037 8.47728C44.0582 8.47728 45.4503 8.64773 46.7798 8.98864C48.1207 9.32955 49.3082 9.85796 50.3423 10.5739C51.3878 11.2898 52.2116 12.2102 52.8139 13.3352C53.4162 14.4489 53.7173 15.7841 53.7173 17.3409V35H46.831V31.3693H46.6264C46.206 32.1875 45.6435 32.9091 44.9389 33.5341C44.2344 34.1477 43.3878 34.6307 42.3992 34.983C41.4105 35.3239 40.2685 35.4943 38.973 35.4943ZM41.0526 30.483C42.1207 30.483 43.0639 30.2727 43.8821 29.8523C44.7003 29.4205 45.3423 28.8409 45.8082 28.1136C46.2741 27.3864 46.5071 26.5625 46.5071 25.642V22.8636C46.2798 23.0114 45.9673 23.1477 45.5696 23.2727C45.1832 23.3864 44.7457 23.4943 44.2571 23.5966C43.7685 23.6875 43.2798 23.7727 42.7912 23.8523C42.3026 23.9205 41.8594 23.983 41.4617 24.0398C40.6094 24.1648 39.8651 24.3636 39.2287 24.6364C38.5923 24.9091 38.098 25.2784 37.7457 25.7443C37.3935 26.1989 37.2173 26.767 37.2173 27.4489C37.2173 28.4375 37.5753 29.1932 38.2912 29.7159C39.0185 30.2273 39.9389 30.483 41.0526 30.483Z" fill="black"/>
<path d="M59.3509 44.8182V8.81818H66.5099V13.2159H66.8338C67.152 12.5114 67.6122 11.7955 68.2145 11.0682C68.8281 10.3295 69.6236 9.71591 70.6009 9.22728C71.5895 8.72728 72.8168 8.47728 74.2827 8.47728C76.1918 8.47728 77.9531 8.97728 79.5668 9.97728C81.1804 10.9659 82.4702 12.4602 83.4361 14.4602C84.402 16.4489 84.8849 18.9432 84.8849 21.9432C84.8849 24.8636 84.4134 27.3295 83.4702 29.3409C82.5384 31.3409 81.2656 32.858 79.652 33.892C78.0497 34.9148 76.2543 35.4261 74.2656 35.4261C72.8565 35.4261 71.6577 35.1932 70.669 34.7273C69.6918 34.2614 68.8906 33.6761 68.2656 32.9716C67.6406 32.2557 67.1634 31.5341 66.8338 30.8068H66.6122V44.8182H59.3509ZM66.4588 21.9091C66.4588 23.4659 66.6747 24.8239 67.1065 25.983C67.5384 27.142 68.1634 28.0455 68.9815 28.6932C69.7997 29.3295 70.794 29.6477 71.9645 29.6477C73.1463 29.6477 74.1463 29.3239 74.9645 28.6761C75.7827 28.017 76.402 27.108 76.8224 25.9489C77.2543 24.7784 77.4702 23.4318 77.4702 21.9091C77.4702 20.3977 77.2599 19.0682 76.8395 17.9205C76.419 16.7727 75.7997 15.875 74.9815 15.2273C74.1634 14.5795 73.1577 14.2557 71.9645 14.2557C70.7827 14.2557 69.7827 14.5682 68.9645 15.1932C68.1577 15.8182 67.5384 16.7045 67.1065 17.8523C66.6747 19 66.4588 20.3523 66.4588 21.9091Z" fill="black"/>
<path d="M101.555 35.5114C98.9077 35.5114 96.6179 34.9489 94.6861 33.8239C92.7656 32.6875 91.2827 31.108 90.2372 29.0852C89.1918 27.0511 88.669 24.6932 88.669 22.0114C88.669 19.3068 89.1918 16.9432 90.2372 14.9205C91.2827 12.8864 92.7656 11.3068 94.6861 10.1818C96.6179 9.04546 98.9077 8.47728 101.555 8.47728C104.203 8.47728 106.487 9.04546 108.408 10.1818C110.339 11.3068 111.828 12.8864 112.874 14.9205C113.919 16.9432 114.442 19.3068 114.442 22.0114C114.442 24.6932 113.919 27.0511 112.874 29.0852C111.828 31.108 110.339 32.6875 108.408 33.8239C106.487 34.9489 104.203 35.5114 101.555 35.5114ZM101.589 29.8864C102.794 29.8864 103.8 29.5455 104.607 28.8636C105.413 28.1705 106.021 27.2273 106.43 26.0341C106.851 24.8409 107.061 23.483 107.061 21.9602C107.061 20.4375 106.851 19.0795 106.43 17.8864C106.021 16.6932 105.413 15.75 104.607 15.0568C103.8 14.3636 102.794 14.017 101.589 14.017C100.374 14.017 99.3509 14.3636 98.5213 15.0568C97.7031 15.75 97.0838 16.6932 96.6634 17.8864C96.2543 19.0795 96.0497 20.4375 96.0497 21.9602C96.0497 23.483 96.2543 24.8409 96.6634 26.0341C97.0838 27.2273 97.7031 28.1705 98.5213 28.8636C99.3509 29.5455 100.374 29.8864 101.589 29.8864Z" fill="black"/>
<path d="M140.947 16.2841L134.3 16.6932C134.186 16.125 133.942 15.6136 133.567 15.1591C133.192 14.6932 132.697 14.3239 132.084 14.0511C131.482 13.767 130.76 13.625 129.919 13.625C128.794 13.625 127.845 13.8636 127.072 14.3409C126.3 14.8068 125.913 15.4318 125.913 16.2159C125.913 16.8409 126.163 17.3693 126.663 17.8011C127.163 18.233 128.021 18.5795 129.237 18.8409L133.976 19.7955C136.521 20.3182 138.419 21.1591 139.669 22.3182C140.919 23.4773 141.544 25 141.544 26.8864C141.544 28.6023 141.038 30.108 140.027 31.4034C139.027 32.6989 137.652 33.7102 135.902 34.4375C134.163 35.1534 132.158 35.5114 129.885 35.5114C126.419 35.5114 123.658 34.7898 121.601 33.3466C119.555 31.8921 118.357 29.9148 118.004 27.4148L125.146 27.0398C125.362 28.0966 125.885 28.9034 126.714 29.4602C127.544 30.0057 128.607 30.2784 129.902 30.2784C131.175 30.2784 132.197 30.0341 132.97 29.5455C133.754 29.0455 134.152 28.4034 134.163 27.6193C134.152 26.9602 133.874 26.4205 133.328 26C132.783 25.5682 131.942 25.2386 130.805 25.0114L126.271 24.108C123.714 23.5966 121.811 22.7102 120.561 21.4489C119.322 20.1875 118.703 18.5795 118.703 16.625C118.703 14.9432 119.158 13.4943 120.067 12.2784C120.987 11.0625 122.277 10.125 123.936 9.46591C125.607 8.80682 127.561 8.47728 129.8 8.47728C133.107 8.47728 135.709 9.17614 137.607 10.5739C139.516 11.9716 140.629 13.875 140.947 16.2841Z" fill="black"/>
<path d="M153.582 35.4943C151.912 35.4943 150.423 35.2045 149.116 34.625C147.81 34.0341 146.776 33.1648 146.014 32.017C145.264 30.858 144.889 29.4148 144.889 27.6875C144.889 26.233 145.156 25.0114 145.69 24.0227C146.224 23.0341 146.952 22.2386 147.872 21.6364C148.793 21.0341 149.838 20.5795 151.009 20.2727C152.19 19.9659 153.429 19.75 154.724 19.625C156.247 19.4659 157.474 19.3182 158.406 19.1818C159.338 19.0341 160.014 18.8182 160.435 18.5341C160.855 18.25 161.065 17.8295 161.065 17.2727V17.1705C161.065 16.0909 160.724 15.2557 160.043 14.6648C159.372 14.0739 158.418 13.7784 157.179 13.7784C155.872 13.7784 154.832 14.0682 154.06 14.6477C153.287 15.2159 152.776 15.9318 152.526 16.7955L145.81 16.25C146.151 14.6591 146.821 13.2841 147.821 12.125C148.821 10.9545 150.111 10.0568 151.69 9.43182C153.281 8.79546 155.122 8.47728 157.213 8.47728C158.668 8.47728 160.06 8.64773 161.389 8.98864C162.73 9.32955 163.918 9.85796 164.952 10.5739C165.997 11.2898 166.821 12.2102 167.423 13.3352C168.026 14.4489 168.327 15.7841 168.327 17.3409V35H161.44V31.3693H161.236C160.815 32.1875 160.253 32.9091 159.548 33.5341C158.844 34.1477 157.997 34.6307 157.009 34.983C156.02 35.3239 154.878 35.4943 153.582 35.4943ZM155.662 30.483C156.73 30.483 157.673 30.2727 158.491 29.8523C159.31 29.4205 159.952 28.8409 160.418 28.1136C160.884 27.3864 161.116 26.5625 161.116 25.642V22.8636C160.889 23.0114 160.577 23.1477 160.179 23.2727C159.793 23.3864 159.355 23.4943 158.866 23.5966C158.378 23.6875 157.889 23.7727 157.401 23.8523C156.912 23.9205 156.469 23.983 156.071 24.0398C155.219 24.1648 154.474 24.3636 153.838 24.6364C153.202 24.9091 152.707 25.2784 152.355 25.7443C152.003 26.1989 151.827 26.767 151.827 27.4489C151.827 28.4375 152.185 29.1932 152.901 29.7159C153.628 30.2273 154.548 30.483 155.662 30.483Z" fill="black"/>
</svg>
